<svg width="373" height="84" viewBox="0 0 373 84" fill="none" xmlns="http://www.w3.org/2000/svg">
<path d="M338.1 0H32.5C21.2 0 12 9.2 12 20.5V63.5C12 74.8 21.2 84 32.5 84H338.1C349.4 84 358.6 74.8 358.6 63.5V20.5C358.7 9.2 349.5 0 338.1 0Z" fill="url(#paint0_linear_804_12656)"/>
<path d="M358.1 63.5001V20.5001C358.1 9.5001 349.2 0.600098 338.2 0.600098H32.6002C21.6002 0.600098 12.7002 9.5001 12.7002 20.5001V63.4001C12.7002 74.4001 21.6002 83.3001 32.6002 83.3001H338.2C349.2 83.4001 358.1 74.5001 358.1 63.5001Z" fill="url(#paint1_linear_804_12656)"/>
<path d="M354.2 63.5V20.5C354.2 11.7 347 4.5 338.2 4.5H32.5996C23.7996 4.5 16.5996 11.7 16.5996 20.5V63.5C16.5996 72.3 23.7996 79.5 32.5996 79.5H338.2C347 79.5 354.2 72.3 354.2 63.5Z" fill="url(#paint2_linear_804_12656)"/>
<path d="M352.2 63.5V20.5C352.2 12.7 345.9 6.5 338.2 6.5H32.5996C24.7996 6.5 18.5996 12.8 18.5996 20.5V63.5C18.5996 71.3 24.8996 77.5 32.5996 77.5H338.2C345.9 77.5 352.2 71.2 352.2 63.5Z" fill="#3C3C3C"/>
<path d="M352.1 63.7V20.8C352.1 13.2 345.9 7 338.3 7H32.8C25.2 7 19 13.2 19 20.8V63.7C19 71.3 25.2 77.5 32.8 77.5H338.4C346 77.5 352.1 71.3 352.1 63.7Z" fill="url(#paint3_linear_804_12656)"/>
<path d="M343 70.1H27.6996C25.9996 70.1 24.2996 69.9 22.5996 69.5C24.3996 71.5 26.5996 73.1 28.9996 74.1C31.4996 75.1 34.0996 75.6 36.7996 75.5H333.8C336.5 75.6 339.1 75.1 341.6 74C344.1 72.9 346.3 71.3 348 69.3C346.4 69.8 344.7 70.1 343 70.1Z" fill="white" fill-opacity="0.4"/>
<path d="M333.9 8.6001H36.9004C28.0004 8.6001 20.9004 14.0001 20.9004 20.5001V36.7001C65.7004 40.1001 140.8 42.0001 194.6 42.0001C238.2 42.0001 311.8 40.8001 349.8 38.5001V20.5001C349.8 14.0001 342.7 8.6001 333.9 8.6001Z" fill="white" fill-opacity="0.4"/>
<path d="M32.4996 83C27.2996 83 22.3996 80.9 18.7996 77.3C15.1996 73.6 13.0996 68.7 13.0996 63.5V20.5C13.0996 15.3 15.0996 10.4 18.7996 6.7C22.3996 3 27.3996 1 32.4996 1H338.1C343.3 1 348.2 3.1 351.9 6.7C355.5 10.3 357.6 15.3 357.6 20.5V63.5C357.6 68.7 355.5 73.6 351.9 77.3C348.3 80.9 343.3 83 338.1 83H32.4996ZM32.4996 4.1C28.0996 4.1 23.9996 5.8 20.8996 8.9C17.7996 12 16.0996 16.2 16.0996 20.5V63.5C16.0996 67.9 17.7996 72 20.8996 75.1C23.9996 78.2 28.1996 79.9 32.4996 79.9H338.1C342.5 79.9 346.6 78.2 349.7 75.1C352.8 72 354.5 67.8 354.5 63.5V20.5C354.5 16.1 352.8 12 349.7 8.9C346.6 5.8 342.4 4.1 338.1 4.1H32.4996V4.1Z" fill="url(#paint4_linear_804_12656)"/>
<path d="M15.5996 19.9001C15.7996 15.5001 17.5996 11.4001 20.6996 8.4001C23.7996 5.4001 27.9996 3.6001 32.3996 3.6001H338.1C342.6 3.6001 346.9 5.4001 350.1 8.6001C353.3 11.8001 355.1 16.1001 355.1 20.6001V21.0001L357.2 21.2001V20.5001C357.2 15.5001 355.2 10.7001 351.6 7.2001C348.1 3.7001 343.3 1.7001 338.3 1.6001H32.4996C27.4996 1.6001 22.7996 3.6001 19.2996 7.1001C15.7996 10.6001 13.6996 15.3001 13.5996 20.2001L15.5996 19.9001Z" fill="url(#paint5_linear_804_12656)"/>
<path d="M355.1 46.5V63.5C355.1 68 353.3 72.3 350.1 75.5C346.9 78.7 342.6 80.5 338.1 80.5H32.5004C28.0004 80.5 23.7004 78.7 20.5004 75.5C17.3004 72.3 15.5004 68 15.5004 63.5V47.5999L13.4004 47.4V63.5C13.4004 68.5 15.4004 73.3 18.9004 76.9C22.4004 80.5 27.2004 82.5 32.3004 82.5H338C343 82.5 347.8 80.5 351.3 76.9C354.8 73.4 356.8 68.5999 356.9 63.5999V46.2L355.1 46.5Z" fill="url(#paint6_linear_804_12656)"/>
<path d="M354 42.1001C354.2 41.8001 355.7 43.2001 357.4 45.2001C358.6 46.4001 359.6 47.8001 360.2 49.4001C360 49.7001 358.5 48.3001 356.8 46.3001C355.6 45.1001 354.7 43.7001 354 42.1001Z" fill="url(#paint7_radial_804_12656)"/>
<path d="M368 46.7999C368.9 37.4999 364.7 29.4999 358.6 28.8999C352.5 28.2999 346.8 35.3999 345.9 44.5999C345 53.8999 349.2 61.8999 355.3 62.4999C361.4 63.0999 367.1 56.0999 368 46.7999Z" fill="url(#paint8_radial_804_12656)"/>
<path d="M356.6 34.5999C357.1 34.4999 357.7 39.3999 358 45.5999C358.3 51.7999 358.2 56.8999 357.7 56.9999C357.2 57.0999 356.6 52.1999 356.3 45.9999C356 39.7999 356.1 34.6999 356.6 34.5999Z" fill="url(#paint9_radial_804_12656)"/>
<path d="M349.6 47.5C349.6 46.8 352.9 45.4 357 44.5C361.1 43.6 364.5 43.3 364.5 44.1C364.5 44.9 361.2 46.2 357.1 47.1C353 48 349.6 48.3 349.6 47.5Z" fill="url(#paint10_radial_804_12656)"/>
<path d="M354.9 53.5999C355 50.7999 355.5 47.9999 356.5 45.2999C357.7 41.0999 359 37.6999 359.3 37.9999C359.2 40.7999 358.7 43.5999 357.7 46.2999C356.5 50.4999 355.2 53.7999 354.9 53.5999Z" fill="url(#paint11_radial_804_12656)"/>
<path d="M25.9 22.0999C26.8 12.9999 22.6 5.09991 16.6 4.49991C10.6 3.99991 5 10.8999 4.1 19.9999C3.2 29.0999 7.4 36.9999 13.4 37.5999C19.4 38.1999 25 31.2999 25.9 22.0999Z" fill="url(#paint12_radial_804_12656)"/>
<path d="M14.4997 9.5C14.9997 9.5 15.5997 14.3 15.8997 20.5C16.1997 26.7 15.9997 31.8 15.5997 31.9C15.0997 32 14.4997 27.1 14.0997 20.9C13.6997 14.6 13.8997 9.6 14.4997 9.5Z" fill="url(#paint13_radial_804_12656)"/>
<path d="M11.7998 17C11.9998 16.7 13.4998 18.1 15.1998 20.1C16.3998 21.3 17.3998 22.7 17.9998 24.3C17.7998 24.6 16.2998 23.2 14.5998 21.2C13.3998 20 12.3998 18.6 11.7998 17Z" fill="white"/>
<path d="M7.40039 22.3999C7.40039 21.6999 10.7004 20.2999 14.8004 19.3999C18.9004 18.4999 22.3004 18.1999 22.3004 18.8999C22.3004 19.5999 19.0004 20.9999 14.9004 21.8999C10.8004 22.7999 7.50039 23.0999 7.40039 22.3999Z" fill="url(#paint14_radial_804_12656)"/>
<path d="M11.0997 27.6998C10.7997 27.3998 12.2997 23.8998 14.3997 19.9998C16.4997 16.0998 18.4997 13.0998 18.5997 13.3998C18.7997 13.6998 17.3997 17.1998 15.2997 21.0998C13.1997 25.1998 11.3997 28.0998 11.0997 27.6998Z" fill="url(#paint15_radial_804_12656)"/>
<g clip-path="url(#clip0_804_12656)">
<path d="M63.8798 49.99C62.9129 50.9712 61.717 51.6963 60.3998 52.1C58.7906 52.6481 57.0998 52.9186 55.3998 52.9C54.1668 52.9595 52.9347 52.7628 51.7815 52.3222C50.6283 51.8816 49.579 51.2066 48.6998 50.34C46.9361 48.3883 45.9784 45.8402 46.0198 43.21V41.36C45.9772 39.467 46.3563 37.5883 47.1298 35.86C47.8076 34.3617 48.9187 33.1009 50.3198 32.24C51.7672 31.3803 53.4268 30.9437 55.1098 30.98C57.3231 30.8391 59.5151 31.4836 61.2998 32.8C62.0747 33.49 62.7026 34.3291 63.1459 35.2672C63.5892 36.2054 63.8388 37.2232 63.8798 38.26H58.8798C58.8186 37.3006 58.4139 36.3954 57.7398 35.71C57.0297 35.1625 56.1446 34.8924 55.2498 34.95C54.6488 34.9298 54.0533 35.0714 53.5256 35.3599C52.998 35.6483 52.5574 36.0731 52.2498 36.59C51.464 38.0234 51.0935 39.6475 51.1798 41.28V42.57C51.0707 44.2418 51.4493 45.9093 52.2698 47.37C52.659 47.9081 53.1794 48.3377 53.7816 48.6178C54.3837 48.8978 55.0476 49.0191 55.7098 48.97C56.7855 49.0547 57.8544 48.7376 58.7098 48.08V44.77H55.1498V41.23H63.8798V49.99Z" fill="white"/>
<path d="M75.38 45.1001H72.6V52.6401H67.46V31.3001H75.88C77.9913 31.1727 80.083 31.7688 81.81 32.9901C82.507 33.5609 83.0582 34.2894 83.4181 35.1153C83.7781 35.9412 83.9364 36.8409 83.88 37.7401C83.9258 39.0295 83.6143 40.3065 82.98 41.4301C82.2899 42.477 81.3101 43.3005 80.16 43.8001L84.61 52.4101V52.6301H79.11L75.38 45.1001ZM72.6 41.1001H75.88C76.2801 41.1328 76.6827 41.0811 77.0616 40.9485C77.4406 40.8158 77.7875 40.6052 78.08 40.3301C78.3399 40.0388 78.5392 39.6987 78.6662 39.3295C78.7933 38.9604 78.8455 38.5696 78.82 38.1801C78.8703 37.3873 78.6042 36.6069 78.08 36.0101C77.787 35.7353 77.4402 35.5241 77.0616 35.3899C76.683 35.2556 76.2806 35.2012 75.88 35.2301H72.6V41.1001Z" fill="white"/>
<path d="M99.7397 48.6501H92.7397L91.5097 52.6501H85.9697L93.7897 31.3201H98.6297L106.51 52.6501H100.99L99.7397 48.6501ZM93.9297 44.6501H98.5097L96.2097 37.2501L93.9297 44.6501Z" fill="white"/>
<path d="M108.66 52.6301V31.3001H116.32C118.511 31.1596 120.694 31.686 122.58 32.8101C123.283 33.2957 123.849 33.9533 124.226 34.72C124.602 35.4868 124.776 36.3372 124.73 37.1901C124.765 38.1882 124.5 39.1738 123.97 40.0201C123.43 40.8237 122.644 41.4306 121.73 41.7501C122.748 41.9832 123.653 42.563 124.29 43.3901C124.903 44.2414 125.216 45.2719 125.18 46.3201C125.241 47.2072 125.091 48.0961 124.744 48.9145C124.396 49.7329 123.861 50.4578 123.18 51.0301C121.847 52.0768 119.887 52.6101 117.3 52.6301H108.66ZM113.8 40.1901H116.48C117.329 40.2596 118.177 40.045 118.89 39.5801C119.134 39.3553 119.324 39.0787 119.447 38.7707C119.57 38.4626 119.622 38.131 119.6 37.8001C119.633 37.4375 119.581 37.0723 119.447 36.7336C119.313 36.395 119.102 36.0924 118.83 35.8501C118.075 35.3976 117.198 35.1914 116.32 35.2601H113.8V40.1901ZM113.8 43.5601V48.6801H117.17C117.937 48.728 118.696 48.5011 119.31 48.0401C119.563 47.8165 119.762 47.5382 119.892 47.2264C120.022 46.9146 120.08 46.5774 120.06 46.2401C120.111 45.879 120.078 45.5109 119.963 45.1648C119.848 44.8186 119.655 44.5036 119.398 44.2443C119.142 43.9849 118.829 43.7883 118.484 43.6696C118.139 43.551 117.772 43.5135 117.41 43.5601H113.8Z" fill="white"/>
<path d="M144.49 40.56L148.42 31.3H153.97L147.1 44.97V52.63H141.88V44.97L135.03 31.3H140.55L144.49 40.56Z" fill="white"/>
<path d="M173.76 42.4101C173.796 44.3141 173.4 46.2016 172.6 47.93C171.89 49.4592 170.746 50.7459 169.31 51.6301C167.845 52.5022 166.165 52.9489 164.46 52.9201C162.763 52.955 161.088 52.5225 159.62 51.6701C158.2 50.8243 157.057 49.5839 156.33 48.1001C155.518 46.4331 155.095 44.6041 155.09 42.75V41.5501C155.055 39.6439 155.448 37.7541 156.24 36.0201C156.954 34.4899 158.101 33.2032 159.54 32.3201C161.017 31.4392 162.711 30.9889 164.43 31.0201C166.129 30.9928 167.801 31.4395 169.26 32.31C170.695 33.1847 171.842 34.4606 172.56 35.9801C173.377 37.6829 173.787 39.5518 173.76 41.4401V42.4101ZM168.53 41.5101C168.633 39.836 168.266 38.1666 167.47 36.6901C167.159 36.1756 166.718 35.7523 166.191 35.4626C165.665 35.1729 165.071 35.0272 164.47 35.0401C161.89 35.0401 160.527 36.9734 160.38 40.84V42.4101C160.273 44.0774 160.619 45.7427 161.38 47.2301C161.695 47.7652 162.151 48.2044 162.697 48.5004C163.243 48.7963 163.859 48.938 164.48 48.9101C165.082 48.9292 165.678 48.7861 166.206 48.4958C166.734 48.2056 167.174 47.7787 167.48 47.2601C168.267 45.7981 168.637 44.1481 168.55 42.4901L168.53 41.5101Z" fill="white"/>
<path d="M193.74 31.3V45.3C193.779 46.7347 193.434 48.1537 192.74 49.41C192.065 50.5672 191.053 51.4915 189.84 52.06C188.436 52.6902 186.908 52.9977 185.37 52.96C183.144 53.0945 180.95 52.3798 179.23 50.96C178.474 50.2567 177.879 49.3986 177.486 48.4442C177.092 47.4897 176.909 46.4616 176.95 45.43V31.3H182.12V45.47C182.12 47.8 183.26 48.97 185.37 48.97C185.812 49.0021 186.257 48.9403 186.674 48.7886C187.091 48.637 187.471 48.3989 187.79 48.09C188.406 47.2704 188.698 46.2519 188.61 45.23V31.3H193.74Z" fill="white"/>
<path d="M205.47 45.0999H202.69V52.64H197.54V31.3H205.94C208.051 31.1742 210.142 31.7701 211.87 32.99C212.58 33.5535 213.144 34.2788 213.517 35.1051C213.889 35.9315 214.058 36.8349 214.01 37.74C214.056 39.0294 213.744 40.3064 213.11 41.4299C212.42 42.4769 211.44 43.3004 210.29 43.8L214.74 52.4099V52.6299H209.23L205.47 45.0999ZM202.69 41.0999H205.94C206.34 41.1314 206.742 41.0791 207.121 40.9466C207.5 40.814 207.847 40.604 208.14 40.33C208.4 40.0387 208.599 39.6985 208.726 39.3294C208.853 38.9602 208.906 38.5695 208.88 38.1799C208.923 37.3882 208.658 36.6106 208.14 36.01C207.847 35.7356 207.5 35.5248 207.121 35.3906C206.743 35.2564 206.341 35.2017 205.94 35.23H202.69V41.0999Z" fill="white"/>
<path d="M225.79 52.63V31.3H233.45C235.641 31.1608 237.823 31.6871 239.71 32.81C240.411 33.2968 240.975 33.9548 241.35 34.7215C241.725 35.4882 241.897 36.338 241.85 37.19C241.885 38.188 241.62 39.1737 241.09 40.02C240.555 40.8281 239.767 41.4364 238.85 41.75C239.87 41.9833 240.779 42.5628 241.42 43.39C242.028 44.2436 242.34 45.2724 242.31 46.32C242.372 47.2072 242.224 48.0966 241.876 48.9153C241.528 49.734 240.992 50.4587 240.31 51.03C238.977 52.0766 237.017 52.61 234.43 52.63H225.79ZM230.93 40.19H233.61C234.456 40.258 235.3 40.0435 236.01 39.58C236.257 39.3575 236.451 39.0815 236.576 38.7731C236.7 38.4647 236.753 38.1319 236.73 37.8C236.763 37.4365 236.71 37.0702 236.574 36.7312C236.439 36.3923 236.225 36.0903 235.95 35.85C235.199 35.3971 234.325 35.1908 233.45 35.26H230.93V40.19ZM230.93 43.56V48.68H234.3C235.064 48.7273 235.819 48.5003 236.43 48.04C236.683 47.8164 236.882 47.5381 237.012 47.2263C237.142 46.9145 237.2 46.5772 237.18 46.24C237.233 45.8785 237.201 45.5096 237.087 45.1624C236.973 44.8153 236.78 44.4994 236.523 44.2395C236.266 43.9797 235.952 43.7831 235.606 43.6652C235.261 43.5473 234.892 43.5112 234.53 43.56H230.93Z" fill="white"/>
<path d="M263.8 42.4101C263.836 44.3141 263.44 46.2016 262.64 47.93C261.93 49.4592 260.786 50.7459 259.35 51.6301C257.885 52.5022 256.205 52.9489 254.5 52.9201C252.803 52.955 251.128 52.5225 249.66 51.6701C248.242 50.8185 247.099 49.5753 246.37 48.09C245.559 46.4231 245.135 44.5941 245.13 42.7401V41.5401C245.095 39.6339 245.488 37.7441 246.28 36.0101C246.994 34.4799 248.141 33.1932 249.58 32.31C251.057 31.4292 252.751 30.9789 254.47 31.0101C256.169 30.9828 257.841 31.4296 259.3 32.3001C260.735 33.1747 261.882 34.4506 262.6 35.9701C263.417 37.6729 263.827 39.5418 263.8 41.43V42.4101ZM258.57 41.5101C258.674 39.8347 258.303 38.164 257.5 36.6901C257.191 36.1735 256.751 35.7485 256.224 35.4585C255.697 35.1685 255.102 35.0241 254.5 35.0401C251.92 35.0401 250.557 36.9734 250.41 40.84V42.4101C250.303 44.0774 250.649 45.7427 251.41 47.2301C251.726 47.7652 252.181 48.2044 252.727 48.5004C253.273 48.7963 253.89 48.938 254.51 48.9101C255.112 48.9292 255.708 48.7861 256.236 48.4958C256.764 48.2056 257.204 47.7787 257.51 47.2601C258.297 45.7981 258.667 44.1481 258.58 42.4901L258.57 41.5101Z" fill="white"/>
<path d="M284.88 52.63H279.77L272.21 39.36V52.63H267.07V31.3H272.21L279.75 44.57V31.3H284.88V52.63Z" fill="white"/>
<path d="M305.44 31.3V45.3C305.479 46.7347 305.133 48.1537 304.44 49.41C303.767 50.5693 302.755 51.4942 301.54 52.06C300.135 52.6902 298.608 52.9977 297.07 52.96C294.844 53.0925 292.65 52.378 290.93 50.96C290.175 50.2555 289.581 49.3971 289.188 48.443C288.795 47.4889 288.611 46.4613 288.65 45.43V31.3H293.82V45.47C293.88 47.8034 294.963 48.97 297.07 48.97C297.512 49.0027 297.957 48.9412 298.374 48.7895C298.791 48.6378 299.171 48.3994 299.49 48.09C300.11 47.2726 300.403 46.2523 300.31 45.23V31.3H305.44Z" fill="white"/>
<path d="M320.25 46.9599C320.265 46.6242 320.2 46.2898 320.061 45.9839C319.922 45.678 319.713 45.4094 319.45 45.1999C318.591 44.6221 317.646 44.1833 316.65 43.8999C315.53 43.5387 314.434 43.1044 313.37 42.5999C310.597 41.2665 309.214 39.3999 309.22 36.9999C309.191 35.8737 309.544 34.7708 310.22 33.8699C310.989 32.9154 312.001 32.1863 313.15 31.7599C314.503 31.2428 315.942 30.9883 317.39 31.0099C318.81 30.9845 320.218 31.2642 321.52 31.8299C322.667 32.3246 323.649 33.1364 324.35 34.1699C325.03 35.1936 325.379 36.4014 325.35 37.6299H320.23C320.249 37.2586 320.187 36.8876 320.049 36.5424C319.911 36.1972 319.7 35.8859 319.43 35.6299C318.826 35.1272 318.055 34.8702 317.27 34.9099C316.496 34.8653 315.729 35.08 315.09 35.5199C314.842 35.6944 314.639 35.9266 314.5 36.1965C314.36 36.4664 314.288 36.7661 314.29 37.0699C314.309 37.3686 314.399 37.6586 314.552 37.9159C314.705 38.1732 314.917 38.3905 315.17 38.5499C316.122 39.1678 317.165 39.6334 318.26 39.9299C319.525 40.3088 320.745 40.8217 321.9 41.4599C322.933 41.959 323.803 42.7387 324.414 43.7095C325.024 44.6803 325.348 45.8033 325.35 46.9499C325.384 47.7998 325.21 48.6452 324.842 49.4122C324.474 50.1792 323.924 50.8444 323.24 51.3499C321.539 52.4978 319.509 53.0564 317.46 52.9399C315.846 52.9633 314.244 52.6464 312.76 52.0099C311.483 51.4868 310.386 50.6045 309.6 49.4699C308.884 48.3595 308.515 47.0609 308.54 45.7399H313.69C313.652 46.199 313.712 46.6609 313.865 47.0953C314.019 47.5296 314.262 47.9266 314.58 48.2599C315.405 48.8821 316.432 49.1745 317.46 49.0799C318.168 49.1142 318.869 48.9215 319.46 48.5299C319.713 48.3555 319.918 48.1203 320.056 47.8459C320.194 47.5715 320.261 47.2668 320.25 46.9599V46.9599Z" fill="white"/>
</g>
<defs>
<linearGradient id="paint0_linear_804_12656" x1="185.341" y1="84" x2="185.341" y2="0" gradientUnits="userSpaceOnUse">
<stop stop-color="#363636"/>
<stop offset="1" stop-color="#D6D6D6"/>
</linearGradient>
<linearGradient id="paint1_linear_804_12656" x1="69.8268" y1="138.898" x2="300.878" y2="-54.9188" gradientUnits="userSpaceOnUse">
<stop stop-color="#363636"/>
<stop offset="0.23" stop-color="#D6D6D6"/>
<stop offset="0.49" stop-color="#141414"/>
<stop offset="0.77" stop-color="#D6D6D6"/>
<stop offset="0.97" stop-color="#6B6B6A"/>
</linearGradient>
<linearGradient id="paint2_linear_804_12656" x1="185.363" y1="79.4854" x2="185.363" y2="4.5154" gradientUnits="userSpaceOnUse">
<stop stop-color="#D6D6D6"/>
<stop offset="1" stop-color="#363636"/>
</linearGradient>
<linearGradient id="paint3_linear_804_12656" x1="185.56" y1="77.455" x2="185.56" y2="7" gradientUnits="userSpaceOnUse">
<stop stop-color="#710000"/>
<stop offset="0.05" stop-color="#850000"/>
<stop offset="0.16" stop-color="#A90000"/>
<stop offset="0.26" stop-color="#C60000"/>
<stop offset="0.37" stop-color="#DA0000"/>
<stop offset="0.47" stop-color="#E60000"/>
<stop offset="0.58" stop-color="#EA0000"/>
<stop offset="0.67" stop-color="#E70000"/>
<stop offset="0.74" stop-color="#DC0000"/>
<stop offset="0.81" stop-color="#CB0000"/>
<stop offset="0.88" stop-color="#B30000"/>
<stop offset="0.94" stop-color="#940000"/>
<stop offset="1" stop-color="#710000"/>
</linearGradient>
<linearGradient id="paint4_linear_804_12656" x1="185.352" y1="82.9501" x2="185.352" y2="1.05" gradientUnits="userSpaceOnUse">
<stop offset="0.03" stop-color="#6B6B6A"/>
<stop offset="0.31"/>
<stop offset="0.66"/>
<stop offset="0.77" stop-color="#D6D6D6"/>
<stop offset="1" stop-color="#878787"/>
</linearGradient>
<linearGradient id="paint5_linear_804_12656" x1="185.404" y1="21.2728" x2="185.404" y2="1.5118" gradientUnits="userSpaceOnUse">
<stop offset="0.26" stop-color="white"/>
<stop offset="1" stop-color="#525252"/>
</linearGradient>
<linearGradient id="paint6_linear_804_12656" x1="185.279" y1="82.4878" x2="185.279" y2="46.2419" gradientUnits="userSpaceOnUse">
<stop/>
<stop offset="0.17" stop-color="#515151"/>
<stop offset="0.55" stop-color="white"/>
<stop offset="1" stop-color="#5C5C5C"/>
</linearGradient>
<radialGradient id="paint7_radial_804_12656" cx="0" cy="0" r="1" gradientUnits="userSpaceOnUse" gradientTransform="translate(357.148 45.7719) rotate(90) scale(3.6881 3.10731)">
<stop stop-color="white"/>
<stop offset="1" stop-color="white" stop-opacity="0"/>
</radialGradient>
<radialGradient id="paint8_radial_804_12656" cx="0" cy="0" r="1" gradientUnits="userSpaceOnUse" gradientTransform="translate(356.926 45.6915) rotate(5.56145) scale(11.1275 16.905)">
<stop stop-color="white" stop-opacity="0.5"/>
<stop offset="1" stop-color="white" stop-opacity="0"/>
</radialGradient>
<radialGradient id="paint9_radial_804_12656" cx="0" cy="0" r="1" gradientUnits="userSpaceOnUse" gradientTransform="translate(357.08 45.7796) rotate(90) scale(11.1748 0.990104)">
<stop stop-color="white"/>
<stop offset="1" stop-color="white" stop-opacity="0"/>
</radialGradient>
<radialGradient id="paint10_radial_804_12656" cx="0" cy="0" r="1" gradientUnits="userSpaceOnUse" gradientTransform="translate(357.066 45.8164) rotate(90) scale(2.1549 7.4638)">
<stop stop-color="white"/>
<stop offset="1" stop-color="white" stop-opacity="0"/>
</radialGradient>
<radialGradient id="paint11_radial_804_12656" cx="0" cy="0" r="1" gradientUnits="userSpaceOnUse" gradientTransform="translate(357.091 45.7826) rotate(90) scale(7.8044 2.2255)">
<stop stop-color="white"/>
<stop offset="1" stop-color="white" stop-opacity="0"/>
</radialGradient>
<radialGradient id="paint12_radial_804_12656" cx="0" cy="0" r="1" gradientUnits="userSpaceOnUse" gradientTransform="translate(14.997 21.0887) rotate(5.56101) scale(10.9385 16.611)">
<stop stop-color="white" stop-opacity="0.4"/>
<stop offset="1" stop-color="white" stop-opacity="0"/>
</radialGradient>
<radialGradient id="paint13_radial_804_12656" cx="0" cy="0" r="1" gradientUnits="userSpaceOnUse" gradientTransform="translate(14.9771 20.6201) rotate(90) scale(11.1623 1.0706)">
<stop stop-color="white"/>
<stop offset="1" stop-color="white" stop-opacity="0"/>
</radialGradient>
<radialGradient id="paint14_radial_804_12656" cx="0" cy="0" r="1" gradientUnits="userSpaceOnUse" gradientTransform="translate(14.9337 20.6299) rotate(90) scale(2.133 7.485)">
<stop stop-color="white"/>
<stop offset="1" stop-color="white" stop-opacity="0"/>
</radialGradient>
<radialGradient id="paint15_radial_804_12656" cx="0" cy="0" r="1" gradientUnits="userSpaceOnUse" gradientTransform="translate(14.8763 20.6243) rotate(90) scale(7.1542 3.8164)">
<stop stop-color="white"/>
<stop offset="1" stop-color="white" stop-opacity="0"/>
</radialGradient>
<clipPath id="clip0_804_12656">
<rect width="279.4" height="21.93" fill="white" transform="translate(46 31)"/>
</clipPath>
</defs>
</svg>
